# xmcd
#
# Track frame offsets:
#	150
#	17845
#	40920
#	66452
#	83992
#	108232
#	121210
#	135485
#	149527
#
# Disc length: 2285 seconds
#
# Revision: 1
# Processed by: cddbd v1.4PL0 Copyright (c) Steve Scherf et al.
# Submitted via: audiograbber 1.80.04
#
DISCID=7d08eb09
DTITLE=Ola Bjurman - Be for real
DYEAR=1996
DGENRE=Blues
TTITLE0=I'll be there
TTITLE1=I ain't lying
TTITLE2=I'm so glad
TTITLE3=If walls could talk
TTITLE4=Be for real
TTITLE5=Should I stay or should I go
TTITLE6=Ain't nobodys bizness
TTITLE7=If you lose your money
TTITLE8=Crazy mama
EXTD=
EXTT0=
EXTT1=
EXTT2=
EXTT3=
EXTT4=
EXTT5=
EXTT6=
EXTT7=
EXTT8=
PLAYORDER=
